<?xml version="1.0" standalone="no"?>
<!DOCTYPE svg PUBLIC "-//W3C//DTD SVG 20010904//EN"
 "http://www.w3.org/TR/2001/REC-SVG-20010904/DTD/svg10.dtd">
<svg version="1.0" xmlns="http://www.w3.org/2000/svg"
 width="512.000000pt" height="512.000000pt" viewBox="0 0 512.000000 512.000000"
 preserveAspectRatio="xMidYMid meet">

<g transform="translate(0.000000,512.000000) scale(0.100000,-0.100000)"
fill="#000000" stroke="none">
<path d="M3870 5105 c-138 -35 -227 -95 -397 -266 l-133 -134 683 -683 683
-683 155 158 c131 134 160 169 191 233 57 117 71 185 66 325 -6 133 -26 204
-89 312 -47 80 -582 615 -662 662 -111 65 -178 84 -317 87 -84 2 -143 -1 -180
-11z"/>
<path d="M1854 3218 c-1315 -1317 -1274 -1273 -1274 -1351 0 -11 9 -40 21 -63
34 -71 111 -105 191 -84 39 10 159 128 1301 1268 691 691 1257 1261 1257 1267
0 13 -212 225 -225 225 -6 0 -578 -568 -1271 -1262z"/>
<path d="M2304 2768 c-1012 -1014 -1265 -1273 -1284 -1313 -35 -73 -39 -181
-9 -260 30 -80 104 -154 184 -184 83 -31 187 -26 265 13 46 23 269 242 1313
1284 691 691 1257 1261 1257 1267 0 13 -442 455 -455 455 -6 0 -577 -568
-1271 -1262z"/>
<path d="M2988 2093 c-1140 -1142 -1258 -1262 -1268 -1301 -13 -52 -6 -95 23
-140 23 -34 88 -72 124 -72 78 0 34 -41 1351 1274 694 693 1262 1265 1262
1271 0 13 -212 225 -225 225 -6 0 -576 -566 -1267 -1257z"/>
<path d="M386 1561 c-11 -21 -387 -1553 -383 -1558 5 -4 1544 374 1555 382 2
2 -20 32 -47 69 -46 61 -91 166 -91 215 0 14 -15 16 -112 16 -89 0 -128 5
-183 22 -194 62 -356 224 -418 418 -17 54 -22 94 -22 177 l0 107 -48 11 c-69
15 -151 57 -203 105 -25 23 -46 39 -48 36z"/>
</g>
</svg>
